<svg width="193" height="80" viewBox="0 0 193 80" fill="none" xmlns="http://www.w3.org/2000/svg">
<g id="Group 37">
<g id="Group">
<path id="Vector" d="M11.3678 0H181.459C187.72 0 192.827 5.10639 192.827 11.3678V68.6322C192.827 74.8936 187.72 80 181.459 80H11.3678C5.10638 80 0 74.8936 0 68.6322V11.3678C0 5.0456 5.04559 0 11.3678 0Z" fill="#025951"/>
<path id="Vector_2" d="M181.459 79.2705C187.72 79.2705 192.827 74.1641 192.827 67.9027C192.827 67.9027 129.726 73.3739 145.653 62.6748C167.842 47.7204 61.7021 48.997 70.152 39.2705C89.7264 16.8997 17.9939 16.5349 0 19.9392V67.9027C0 74.1641 5.10638 79.2705 11.3678 79.2705H181.459Z" fill="#037A6F"/>
<g id="Group_2">
<g id="Group_3">
<g id="Group_4">
<g id="Group_5">
<g id="Group_6">
<path id="Vector_3" d="M174.042 19.8784L172.522 20C172.522 20 175.927 39.3313 177.325 69.0578L183.89 68.0243C183.89 68.0243 178.966 37.8724 174.042 19.8784Z" fill="white"/>
<g id="Group_7">
<g id="Group_8">
<g id="Group_9">
<g id="Group_10">
<path id="Vector_4" d="M166.991 16.8389C166.991 17.0213 167.052 17.2037 167.052 17.386C167.416 17.4468 167.781 17.5076 168.207 17.5684C168.268 17.4468 168.328 17.386 168.45 17.2644C168.45 17.386 168.45 17.5076 168.45 17.6292C168.936 17.7508 169.362 17.8724 169.848 18.0547C169.97 17.9331 170.03 17.8116 170.152 17.69C170.152 17.8723 170.152 17.9939 170.152 18.1763C170.334 18.2371 170.456 18.2979 170.638 18.3587C170.699 18.2979 170.76 18.1763 170.821 18.1155C170.821 18.2371 170.821 18.3587 170.821 18.4802C171.185 18.6626 171.55 18.845 171.915 19.0274C171.976 18.9666 172.037 18.9058 172.097 18.845C172.097 18.9058 172.097 19.0274 172.037 19.0881C172.401 19.3313 172.766 19.5745 173.192 19.8784C173.192 19.8784 173.252 18.9058 172.34 17.6292L172.158 17.4468C171.733 16.9605 171.185 16.4134 170.395 16.0486C170.213 16.1702 170.091 16.2918 169.97 16.4134C170.03 16.231 170.03 16.1094 170.091 15.9271C169.483 15.6839 168.815 15.5623 168.085 15.5623C168.085 15.6839 168.085 15.8055 168.085 15.9271C167.964 15.8055 167.903 15.6839 167.781 15.5623C167.173 15.6231 166.505 15.7447 165.836 16.0486L165.654 16.1702C165.046 16.4742 164.499 16.9605 164.012 17.5684C164.012 17.5684 165.167 17.2644 166.626 17.386C166.748 17.1429 166.869 16.9605 166.991 16.8389Z" fill="white"/>
</g>
</g>
<g id="Group_11">
<g id="Group_12">
<path id="Vector_5" d="M166.687 20.0608C166.808 20.1824 166.869 20.3648 166.99 20.4863C167.294 20.3648 167.659 20.2432 168.024 20.1216C168.024 20 168.085 19.8784 168.085 19.7569C168.145 19.8784 168.145 19.9392 168.206 20.0608C168.632 19.9392 169.057 19.8784 169.544 19.8176C169.604 19.6961 169.604 19.5137 169.665 19.3921C169.726 19.5137 169.787 19.6353 169.848 19.7569C170.03 19.7569 170.152 19.6961 170.334 19.6961C170.334 19.5745 170.395 19.5137 170.395 19.3921C170.456 19.4529 170.516 19.5745 170.577 19.6353C170.942 19.6353 171.367 19.6353 171.732 19.6353C171.732 19.5745 171.793 19.5137 171.793 19.3921C171.793 19.4529 171.854 19.5745 171.854 19.6353C172.279 19.6353 172.705 19.6961 173.13 19.7569C173.13 19.7569 172.766 18.9058 171.428 18.2979L171.185 18.1763C170.638 17.9331 169.908 17.7508 169.118 17.8116H168.814C168.206 17.8723 167.598 18.0547 166.99 18.3587L166.747 18.4803C166.261 18.7842 165.775 19.2097 165.349 19.6961L165.228 19.8784C164.863 20.4256 164.62 21.0334 164.498 21.7629C164.498 21.7629 165.349 21.0335 166.626 20.4863C166.686 20.4256 166.687 20.2432 166.687 20.0608Z" fill="white"/>
</g>
</g>
<g id="Group_13">
<g id="Group_14">
<path id="Vector_6" d="M168.328 22.7964C168.45 22.8572 168.571 22.9179 168.754 23.0395C168.936 22.7964 169.179 22.5532 169.361 22.3101C169.301 22.1885 169.301 22.1277 169.24 22.0061C169.301 22.0669 169.422 22.1277 169.483 22.1885C169.787 21.9453 170.03 21.6414 170.395 21.3982C170.334 21.2766 170.334 21.155 170.273 21.0335C170.395 21.0942 170.517 21.155 170.577 21.2158C170.699 21.155 170.82 21.0335 170.942 20.9727C170.942 20.9119 170.881 20.7903 170.881 20.7295C170.942 20.7903 171.064 20.7903 171.124 20.8511C171.368 20.6687 171.672 20.4863 172.036 20.3648C172.036 20.304 171.975 20.2432 171.975 20.1824C172.036 20.2432 172.097 20.304 172.158 20.304C172.462 20.1216 172.827 20 173.191 19.8784C173.191 19.8784 172.523 19.3921 171.307 19.4529H171.064C170.517 19.5137 169.909 19.6961 169.361 20.0608L169.118 20.2432C168.693 20.5471 168.267 20.9727 167.963 21.459L167.842 21.6414C167.599 22.0669 167.416 22.614 167.355 23.1611V23.3435C167.295 23.8906 167.355 24.4985 167.599 25.0456C167.599 25.0456 167.903 24.1338 168.632 23.1611C168.51 23.1003 168.389 22.918 168.328 22.7964Z" fill="white"/>
</g>
</g>
<g id="Group_15">
<g id="Group_16">
<path id="Vector_7" d="M170.638 23.8298C170.76 23.8298 170.881 23.8298 171.003 23.8298C171.063 23.5866 171.124 23.3435 171.246 23.0395C171.185 22.9787 171.124 22.9179 171.063 22.8571C171.124 22.8571 171.246 22.9179 171.307 22.9179C171.428 22.614 171.55 22.31 171.671 22.0061C171.611 21.9453 171.55 21.8237 171.489 21.7629C171.611 21.7629 171.732 21.7629 171.793 21.8237C171.854 21.7021 171.915 21.6413 171.975 21.5198C171.915 21.459 171.854 21.3982 171.854 21.3374C171.915 21.3374 172.036 21.3374 172.097 21.3374C172.218 21.0942 172.401 20.8511 172.583 20.6079C172.522 20.5471 172.522 20.5471 172.462 20.4863C172.522 20.4863 172.583 20.5471 172.644 20.5471C172.826 20.3039 173.009 20.0608 173.252 19.8176C173.252 19.8176 172.583 19.696 171.671 20.2432L171.489 20.3647C171.124 20.6079 170.699 20.9726 170.395 21.459L170.273 21.6413C170.091 22.0061 169.908 22.4924 169.848 22.9787V23.1611C169.848 23.5866 169.848 24.0729 170.03 24.4985L170.091 24.6201C170.273 25.0456 170.516 25.4711 170.881 25.8359C170.881 25.8359 170.76 24.9848 170.942 24.0122C170.82 24.0122 170.76 23.9514 170.638 23.8298Z" fill="white"/>
</g>
</g>
</g>
<g id="Group_17">
<g id="Group_18">
<g id="Group_19">
<path id="Vector_8" d="M175.866 13.4347C175.988 13.5562 176.11 13.7386 176.17 13.8602C175.927 14.1033 175.684 14.4073 175.441 14.772C175.319 14.7112 175.198 14.7113 175.076 14.7113C175.137 14.7721 175.258 14.8936 175.319 14.9544C175.076 15.3192 174.772 15.7447 174.529 16.1702C174.347 16.1702 174.225 16.1094 174.043 16.1094C174.164 16.231 174.225 16.3526 174.347 16.4742C174.286 16.5958 174.164 16.7781 174.103 16.9605C173.982 16.9605 173.921 16.8997 173.8 16.8997C173.86 17.0213 173.921 17.0821 173.982 17.1429C173.8 17.5076 173.678 17.8724 173.496 18.2979C173.435 18.2979 173.313 18.2979 173.252 18.2979C173.313 18.3587 173.374 18.4195 173.435 18.4802C173.313 18.9058 173.192 19.3313 173.07 19.8176C173.07 19.8176 172.401 19.0882 172.219 17.5684C172.341 17.5076 172.462 17.4468 172.584 17.386C172.462 17.3252 172.341 17.3252 172.158 17.2644C172.158 16.5957 172.219 15.8663 172.584 15.076C172.766 15.076 172.948 15.076 173.131 15.0152C173.009 14.8936 172.827 14.8328 172.705 14.7113C173.009 14.1034 173.435 13.5562 173.982 13.0699C174.043 13.1307 174.103 13.2523 174.225 13.3131C174.225 13.1915 174.225 13.0091 174.225 12.8876C174.711 12.5228 175.319 12.1581 175.988 11.9757L176.231 11.9149C176.9 11.7325 177.629 11.7325 178.359 11.8541C178.359 11.8541 177.265 12.4012 176.292 13.4347C176.231 13.617 176.049 13.4955 175.866 13.4347Z" fill="white"/>
</g>
</g>
<g id="Group_20">
<g id="Group_21">
<path id="Vector_9" d="M178.48 15.4407C178.48 15.6231 178.541 15.8055 178.541 15.9878C178.176 16.1094 177.811 16.231 177.447 16.4134C177.325 16.3526 177.264 16.231 177.143 16.1702C177.203 16.2918 177.203 16.4134 177.264 16.535C176.839 16.7173 176.413 16.9605 175.988 17.2644C175.866 17.2037 175.744 17.0821 175.623 17.0213C175.684 17.2037 175.684 17.3253 175.744 17.4468C175.623 17.5684 175.441 17.6292 175.319 17.7508C175.258 17.69 175.137 17.6292 175.076 17.5684C175.076 17.69 175.137 17.8116 175.137 17.9331C174.833 18.1763 174.529 18.4803 174.164 18.7842C174.103 18.7234 174.042 18.7234 173.921 18.6626C173.982 18.7234 173.982 18.845 174.042 18.9058C173.738 19.2097 173.434 19.5745 173.131 19.9392C173.131 19.9392 172.887 19.0274 173.434 17.5684C173.556 17.5684 173.738 17.5684 173.86 17.6292C173.738 17.5076 173.678 17.4468 173.556 17.3252C173.86 16.7173 174.286 16.1094 174.893 15.5623C175.076 15.6231 175.258 15.6839 175.441 15.8055C175.38 15.6839 175.258 15.5015 175.197 15.3799C175.744 15.0152 176.352 14.7113 177.082 14.5289C177.082 14.6505 177.143 14.7721 177.143 14.8936C177.203 14.7721 177.264 14.6505 177.325 14.4681C177.933 14.3465 178.602 14.3465 179.331 14.4681L179.574 14.5289C180.243 14.7113 180.912 15.0152 181.459 15.5015C181.459 15.5015 180.243 15.5015 178.845 15.9271C178.784 15.6839 178.662 15.5623 178.48 15.4407Z" fill="white"/>
</g>
</g>
<g id="Group_22">
<g id="Group_23">
<path id="Vector_10" d="M179.513 18.4803C179.453 18.6626 179.392 18.7842 179.331 18.9666C178.966 18.9058 178.601 18.9058 178.237 18.845C178.176 18.7234 178.176 18.6018 178.115 18.4803C178.115 18.6018 178.054 18.7234 178.054 18.7842C177.629 18.7842 177.143 18.7842 176.656 18.845C176.595 18.7234 176.535 18.6018 176.474 18.4803C176.413 18.6018 176.413 18.7842 176.352 18.9058C176.17 18.9058 176.048 18.9666 175.866 18.9666C175.805 18.9058 175.805 18.7842 175.744 18.7234C175.684 18.845 175.684 18.9058 175.623 19.0274C175.258 19.0882 174.893 19.2097 174.468 19.2705C174.407 19.2097 174.407 19.1489 174.346 19.0882C174.346 19.1489 174.346 19.2705 174.346 19.3313C173.981 19.4529 173.556 19.5745 173.13 19.7569C173.13 19.7569 173.313 18.845 174.407 17.9331L174.589 17.7508C175.076 17.386 175.684 17.0821 176.474 16.8997L176.778 16.8389C177.386 16.7781 178.054 16.7781 178.723 16.9605L178.966 17.0213C179.513 17.2037 180.121 17.5076 180.608 17.8724L180.79 17.9939C181.276 18.4195 181.702 18.9666 181.945 19.6353C181.945 19.6353 180.912 19.0882 179.574 18.9058C179.635 18.845 179.574 18.6626 179.513 18.4803Z" fill="white"/>
</g>
</g>
<g id="Group_24">
<g id="Group_25">
<path id="Vector_11" d="M178.602 21.5198C178.48 21.6413 178.359 21.7021 178.237 21.8237C177.994 21.6413 177.751 21.459 177.447 21.2766C177.447 21.155 177.508 21.0942 177.508 20.9726C177.447 21.0334 177.386 21.155 177.325 21.2158C177.021 21.0334 176.656 20.8511 176.231 20.6687C176.231 20.5471 176.231 20.4255 176.231 20.3039C176.109 20.3647 176.049 20.4863 175.988 20.6079C175.866 20.5471 175.745 20.4863 175.562 20.4255C175.562 20.3647 175.562 20.2432 175.562 20.1824C175.501 20.2432 175.441 20.304 175.38 20.3647C175.076 20.2432 174.772 20.1824 174.407 20.0608C174.407 20 174.407 19.9392 174.407 19.8784C174.346 19.9392 174.346 20 174.286 20.0608C173.921 20 173.556 19.9392 173.191 19.8784C173.191 19.8784 173.739 19.2705 174.954 19.0274L175.197 18.9666C175.745 18.9058 176.353 18.9058 177.021 19.1489L177.264 19.2705C177.751 19.4529 178.237 19.7568 178.663 20.1824L178.845 20.3647C179.21 20.7295 179.514 21.2158 179.696 21.7021L179.757 21.8845C179.939 22.4316 180 23.0395 179.939 23.6474C179.939 23.6474 179.392 22.7963 178.48 22.0669C178.541 21.8845 178.541 21.7021 178.602 21.5198Z" fill="white"/>
</g>
</g>
<g id="Group_26">
<g id="Group_27">
<path id="Vector_12" d="M176.656 23.1003C176.535 23.1611 176.413 23.1611 176.291 23.2219C176.17 22.9787 176.048 22.7356 175.927 22.5532C175.987 22.4924 176.048 22.4316 176.048 22.3101C175.988 22.3708 175.927 22.3708 175.805 22.4316C175.623 22.1885 175.44 21.8845 175.197 21.6414C175.258 21.5198 175.319 21.459 175.319 21.3374C175.197 21.3982 175.136 21.3982 175.015 21.459C174.954 21.3982 174.832 21.2766 174.772 21.2158C174.832 21.155 174.832 21.0942 174.893 21.0335C174.832 21.0335 174.772 21.0943 174.65 21.0943C174.468 20.9119 174.225 20.7295 174.042 20.4863C174.042 20.4256 174.103 20.3648 174.103 20.304C174.042 20.304 173.981 20.3648 173.921 20.3648C173.677 20.1824 173.434 20 173.13 19.8177C173.13 19.8177 173.738 19.5745 174.772 19.8177L174.954 19.8784C175.38 20 175.805 20.2432 176.231 20.6687L176.413 20.8511C176.717 21.155 176.96 21.5806 177.143 22.0669L177.203 22.2493C177.325 22.6748 177.386 23.1003 177.325 23.5866V23.769C177.264 24.2553 177.082 24.7417 176.839 25.1672C176.839 25.1672 176.717 24.3161 176.352 23.4651C176.474 23.3435 176.535 23.2219 176.656 23.1003Z" fill="white"/>
</g>
</g>
</g>
</g>
</g>
</g>
<g id="Group_28">
<g id="Group_29">
<path id="Vector_13" d="M167.842 33.4346L166.748 33.6778C166.748 33.6778 171.489 47.4772 175.988 69.1793L180.669 67.6596C180.669 67.6596 173.556 46.079 167.842 33.4346Z" fill="white"/>
<g id="Group_30">
<g id="Group_31">
<g id="Group_32">
<g id="Group_33">
<path id="Vector_14" d="M162.31 31.9757C162.371 32.0973 162.371 32.2188 162.432 32.4012C162.736 32.4012 162.979 32.4012 163.283 32.4012C163.343 32.3404 163.343 32.2188 163.404 32.1581C163.404 32.2188 163.404 32.3404 163.404 32.4012C163.769 32.4012 164.134 32.462 164.498 32.5228C164.559 32.4012 164.62 32.3404 164.681 32.2188C164.681 32.3404 164.742 32.462 164.742 32.5836C164.863 32.5836 164.985 32.6444 165.106 32.6444C165.167 32.5836 165.167 32.5228 165.228 32.462C165.228 32.5228 165.289 32.6444 165.289 32.7052C165.593 32.7659 165.897 32.8875 166.201 33.0091C166.261 32.9483 166.261 32.8875 166.322 32.8267C166.322 32.8875 166.322 32.9483 166.322 33.0091C166.626 33.1307 166.93 33.2523 167.234 33.4346C167.234 33.4346 167.173 32.7052 166.383 31.9149L166.261 31.7933C165.897 31.4894 165.41 31.1854 164.802 31.003C164.681 31.1246 164.62 31.1854 164.498 31.307C164.498 31.1854 164.498 31.0638 164.559 30.9422C164.073 30.8207 163.587 30.8207 163.04 30.8815C163.04 30.9422 163.1 31.0638 163.1 31.1246C163.04 31.0638 162.918 31.003 162.857 30.8815C162.371 31.003 161.945 31.1854 161.52 31.4894L161.398 31.6109C160.973 31.9149 160.608 32.3404 160.365 32.8267C160.365 32.8267 161.216 32.462 162.249 32.4012C162.188 32.2796 162.249 32.1581 162.31 31.9757Z" fill="white"/>
</g>
</g>
<g id="Group_34">
<g id="Group_35">
<path id="Vector_15" d="M162.492 34.4073C162.553 34.5289 162.675 34.5897 162.736 34.7113C162.979 34.5897 163.222 34.4681 163.465 34.3465C163.465 34.2857 163.465 34.1642 163.465 34.1034C163.526 34.1642 163.526 34.2249 163.587 34.3465C163.891 34.2249 164.195 34.1034 164.559 33.9818C164.559 33.8602 164.559 33.7386 164.62 33.6778C164.681 33.7386 164.742 33.8602 164.802 33.921C164.924 33.8602 165.046 33.8602 165.167 33.8602C165.167 33.7994 165.167 33.7386 165.167 33.617C165.228 33.6778 165.289 33.7386 165.35 33.7994C165.593 33.7386 165.897 33.6778 166.201 33.6778C166.201 33.617 166.201 33.5563 166.201 33.4955C166.201 33.5563 166.261 33.617 166.261 33.6778C166.565 33.617 166.869 33.617 167.234 33.617C167.234 33.617 166.869 33.0699 165.836 32.7052L165.654 32.6444C165.228 32.5228 164.681 32.5228 164.134 32.5836L163.891 32.6444C163.465 32.766 162.979 32.9484 162.614 33.2523L162.432 33.3739C162.067 33.6778 161.763 34.0426 161.581 34.4681L161.52 34.5897C161.337 35.0152 161.216 35.5015 161.216 36.0486C161.216 36.0486 161.763 35.38 162.614 34.8328C162.553 34.7113 162.492 34.5289 162.492 34.4073Z" fill="white"/>
</g>
</g>
<g id="Group_36">
<g id="Group_37">
<path id="Vector_16" d="M164.012 36.231C164.133 36.2918 164.255 36.2918 164.316 36.3526C164.437 36.1702 164.559 35.9878 164.68 35.7447C164.62 35.6839 164.62 35.6231 164.559 35.5623C164.62 35.6231 164.68 35.6231 164.741 35.6839C164.924 35.4407 165.106 35.2584 165.288 35.0152C165.228 34.9544 165.228 34.8328 165.167 34.7721C165.228 34.8328 165.349 34.8328 165.41 34.8936C165.471 34.8328 165.531 34.772 165.653 34.6505C165.653 34.5897 165.592 34.5289 165.592 34.4681C165.653 34.4681 165.714 34.5289 165.775 34.5289C165.957 34.3465 166.139 34.2249 166.383 34.0426C166.383 33.9818 166.322 33.921 166.322 33.921C166.383 33.921 166.383 33.9818 166.443 33.9818C166.686 33.8602 166.869 33.6778 167.173 33.5562C167.173 33.5562 166.626 33.3131 165.714 33.4955L165.531 33.5562C165.167 33.6778 164.741 33.8602 164.316 34.1641L164.133 34.2857C163.829 34.5289 163.586 34.8936 163.404 35.3192L163.343 35.5015C163.221 35.8663 163.161 36.2918 163.161 36.7173V36.8389C163.161 37.2644 163.282 37.69 163.525 38.0547C163.525 38.0547 163.647 37.3252 164.072 36.535C164.133 36.4134 164.073 36.2918 164.012 36.231Z" fill="white"/>
</g>
</g>
<g id="Group_38">
<g id="Group_39">
<path id="Vector_17" d="M165.836 36.7173C165.957 36.7173 166.018 36.7173 166.14 36.6565C166.14 36.4742 166.2 36.2918 166.2 36.0486C166.14 35.9878 166.079 35.9879 166.018 35.9271C166.079 35.9271 166.14 35.9271 166.2 35.9271C166.261 35.6839 166.322 35.4407 166.383 35.1976C166.322 35.1368 166.261 35.076 166.2 35.0152C166.261 35.0152 166.383 35.0152 166.444 35.0152C166.444 34.9544 166.504 34.8328 166.504 34.7721C166.444 34.7113 166.444 34.7113 166.383 34.6505C166.444 34.6505 166.504 34.6505 166.565 34.6505C166.626 34.4681 166.748 34.2857 166.808 34.0426C166.748 34.0426 166.748 33.9818 166.687 33.9818C166.748 33.9818 166.748 33.9818 166.808 33.9818C166.93 33.7994 167.051 33.617 167.173 33.3739C167.173 33.3739 166.687 33.3739 166.079 33.8602L165.957 33.921C165.714 34.1641 165.471 34.4681 165.289 34.8328L165.228 35.0152C165.106 35.3192 165.045 35.6839 165.045 36.0486V36.1702C165.106 36.4742 165.167 36.8389 165.349 37.1429L165.41 37.2644C165.593 37.5684 165.836 37.8724 166.14 38.0547C166.14 38.0547 165.957 37.4468 166.018 36.7173C166.018 36.8389 165.896 36.7781 165.836 36.7173Z" fill="white"/>
</g>
</g>
</g>
<g id="Group_40">
<g id="Group_41">
<g id="Group_42">
<path id="Vector_18" d="M168.45 28.5106C168.571 28.6322 168.632 28.693 168.754 28.8146C168.571 29.0578 168.45 29.3009 168.328 29.5441C168.207 29.5441 168.146 29.5441 168.024 29.5441C168.085 29.6049 168.146 29.6657 168.267 29.7264C168.085 30.0304 167.963 30.3951 167.842 30.6991C167.72 30.6991 167.599 30.6991 167.477 30.6991C167.538 30.7599 167.659 30.8815 167.72 30.9423C167.659 31.0638 167.659 31.1854 167.599 31.307C167.538 31.307 167.416 31.307 167.355 31.307C167.416 31.3678 167.477 31.4286 167.538 31.4894C167.477 31.7933 167.416 32.0973 167.355 32.4012C167.295 32.4012 167.234 32.4012 167.173 32.4012C167.234 32.462 167.295 32.462 167.355 32.5228C167.295 32.8268 167.295 33.1915 167.234 33.5562C167.234 33.5562 166.687 33.1307 166.383 32.0365C166.444 31.9757 166.565 31.9149 166.626 31.8541C166.504 31.8541 166.444 31.8541 166.322 31.7933C166.2 31.307 166.2 30.7599 166.383 30.152C166.504 30.0912 166.687 30.0912 166.808 30.0912C166.687 30.0304 166.565 29.9696 166.444 29.9088C166.565 29.4225 166.808 28.997 167.173 28.5714C167.234 28.6322 167.295 28.693 167.355 28.7538C167.355 28.6322 167.295 28.5106 167.295 28.4498C167.599 28.0851 168.024 27.7812 168.51 27.5988L168.693 27.538C169.179 27.3556 169.726 27.234 170.273 27.2948C170.273 27.2948 169.544 27.842 168.936 28.693C168.754 28.5714 168.571 28.5106 168.45 28.5106Z" fill="white"/>
</g>
</g>
<g id="Group_43">
<g id="Group_44">
<path id="Vector_19" d="M170.638 29.6049C170.699 29.7265 170.699 29.848 170.76 30.0304C170.517 30.152 170.273 30.3344 170.03 30.4559C169.97 30.3951 169.848 30.3343 169.787 30.3343C169.848 30.3951 169.848 30.5167 169.909 30.5775C169.605 30.7599 169.362 31.003 169.058 31.2462C168.936 31.1854 168.875 31.1246 168.754 31.1246C168.814 31.2462 168.814 31.3678 168.875 31.4286C168.814 31.4894 168.693 31.611 168.632 31.7325C168.571 31.6717 168.511 31.6717 168.45 31.6109C168.45 31.6717 168.511 31.7933 168.511 31.8541C168.328 32.0973 168.085 32.2796 167.903 32.5836C167.842 32.5836 167.781 32.5228 167.72 32.5228C167.781 32.5836 167.781 32.6444 167.842 32.7052C167.659 32.9483 167.477 33.2523 167.295 33.5562C167.295 33.5562 166.991 32.8875 167.234 31.7933C167.356 31.7933 167.416 31.7933 167.538 31.7933C167.477 31.7325 167.356 31.6717 167.295 31.6109C167.416 31.1246 167.659 30.6383 168.085 30.152C168.207 30.2128 168.389 30.2128 168.511 30.2736C168.45 30.152 168.328 30.0912 168.267 29.9696C168.632 29.6049 169.058 29.3009 169.544 29.1185C169.605 29.1793 169.605 29.3009 169.666 29.3617C169.666 29.2401 169.726 29.1185 169.787 29.0577C170.213 28.8754 170.76 28.8146 171.246 28.8146H171.428C171.915 28.8754 172.462 28.997 172.948 29.3009C172.948 29.3009 172.036 29.4225 171.125 29.9088C170.881 29.7872 170.76 29.7265 170.638 29.6049Z" fill="white"/>
</g>
</g>
<g id="Group_45">
<g id="Group_46">
<path id="Vector_20" d="M171.732 31.7933C171.732 31.9149 171.672 32.0365 171.672 32.1581C171.428 32.1581 171.124 32.1581 170.881 32.2188C170.821 32.1581 170.821 32.0365 170.76 31.9757C170.76 32.0365 170.76 32.1581 170.76 32.2188C170.456 32.2796 170.091 32.3404 169.787 32.4012C169.726 32.3404 169.665 32.2188 169.605 32.1581C169.605 32.2796 169.605 32.4012 169.544 32.462C169.422 32.5228 169.301 32.5228 169.179 32.5836C169.118 32.5228 169.118 32.462 169.058 32.4012C169.058 32.462 169.058 32.5836 168.997 32.6444C168.754 32.766 168.45 32.8268 168.207 32.9483C168.146 32.8875 168.146 32.8875 168.085 32.8268C168.085 32.8875 168.085 32.9483 168.085 33.0091C167.842 33.1307 167.538 33.3131 167.234 33.4954C167.234 33.4954 167.295 32.8268 167.963 31.9757L168.085 31.8541C168.389 31.5502 168.814 31.2462 169.362 31.003L169.605 30.9422C170.03 30.8207 170.517 30.7599 171.003 30.8207H171.185C171.611 30.8815 172.097 31.0638 172.462 31.307L172.583 31.3678C173.009 31.6109 173.374 31.9757 173.617 32.462C173.617 32.462 172.827 32.2188 171.793 32.1581C171.854 32.0365 171.793 31.9149 171.732 31.7933Z" fill="white"/>
</g>
</g>
<g id="Group_47">
<g id="Group_48">
<path id="Vector_21" d="M171.368 34.1034C171.307 34.1641 171.246 34.2857 171.124 34.3465C170.942 34.2249 170.699 34.1641 170.517 34.0426C170.517 33.9818 170.517 33.8602 170.517 33.7994C170.456 33.8602 170.456 33.921 170.395 33.9818C170.152 33.8602 169.848 33.7994 169.544 33.6778C169.544 33.5562 169.544 33.4954 169.483 33.3739C169.422 33.4347 169.362 33.5562 169.301 33.617C169.179 33.617 169.118 33.5562 168.997 33.5562C168.997 33.4955 168.997 33.4347 168.997 33.3739C168.936 33.4347 168.936 33.4955 168.875 33.5562C168.632 33.4955 168.389 33.4954 168.146 33.4347C168.146 33.3739 168.146 33.3131 168.146 33.3131C168.146 33.3739 168.085 33.4347 168.085 33.4347C167.842 33.4347 167.538 33.4347 167.234 33.4347C167.234 33.4347 167.538 32.9483 168.45 32.5836L168.632 32.5228C168.997 32.4012 169.483 32.3404 169.969 32.462L170.152 32.5228C170.517 32.5836 170.942 32.766 171.307 33.0091L171.428 33.1307C171.732 33.3739 172.036 33.6778 172.219 34.0426L172.279 34.1641C172.462 34.5289 172.583 34.9544 172.644 35.4407C172.644 35.4407 172.158 34.8936 171.368 34.4681C171.368 34.3465 171.368 34.2249 171.368 34.1034Z" fill="white"/>
</g>
</g>
<g id="Group_49">
<g id="Group_50">
<path id="Vector_22" d="M170.152 35.5015C170.091 35.5623 169.969 35.5623 169.909 35.6231C169.787 35.4407 169.665 35.3191 169.544 35.1368C169.544 35.076 169.605 35.0152 169.605 34.9544C169.544 35.0152 169.483 35.0152 169.422 35.076C169.24 34.8936 169.058 34.7112 168.875 34.5289C168.875 34.4681 168.936 34.4073 168.936 34.2857C168.875 34.3465 168.814 34.3465 168.754 34.4073C168.693 34.3465 168.632 34.2857 168.571 34.2249C168.571 34.1641 168.632 34.1034 168.632 34.1034C168.571 34.1034 168.51 34.1641 168.45 34.1641C168.267 34.0426 168.085 33.921 167.903 33.7994C167.903 33.7386 167.903 33.7386 167.963 33.6778C167.903 33.6778 167.903 33.7386 167.842 33.7386C167.659 33.617 167.416 33.4954 167.234 33.4347C167.234 33.4347 167.659 33.1915 168.45 33.2523H168.571C168.875 33.3131 169.24 33.4347 169.605 33.6778L169.726 33.7994C169.969 33.9818 170.213 34.2857 170.395 34.5897L170.456 34.7113C170.577 35.0152 170.699 35.3192 170.699 35.6839V35.8055C170.699 36.1702 170.638 36.535 170.517 36.8997C170.517 36.8997 170.334 36.2918 169.969 35.6839C170.03 35.6839 170.091 35.6231 170.152 35.5015Z" fill="white"/>
</g>
</g>
</g>
</g>
</g>
</g>
</g>
<path id="Vector_23" d="M186.808 68.6322V54.8936C161.58 54.8936 147.963 73.9818 147.963 73.9818H181.459C184.377 73.9818 186.808 71.5502 186.808 68.6322Z" fill="black"/>
<path id="Vector_24" d="M186.808 54.8936C179.27 54.8936 172.766 56.5958 167.355 58.9666C154.65 64.5593 147.902 73.9818 147.902 73.9818" stroke="white" stroke-width="3" stroke-miterlimit="10"/>
</g>
<g id="Group_51">
<g id="Group_52">
<g id="Group_53">
<g id="Group_54">
<path id="Vector_25" d="M18.723 19.8784L20.2428 20C20.2428 20 16.8385 39.3313 15.4404 69.0578L8.875 68.0243C8.93579 68.0243 13.8598 37.8724 18.723 19.8784Z" fill="white"/>
<g id="Group_55">
<g id="Group_56">
<g id="Group_57">
<g id="Group_58">
<path id="Vector_26" d="M25.8357 16.8389C25.8357 17.0213 25.7749 17.2037 25.7749 17.386C25.4102 17.4468 25.0455 17.5076 24.6199 17.5684C24.5591 17.4468 24.4983 17.386 24.3768 17.2644C24.3768 17.386 24.3768 17.5076 24.3768 17.6292C23.8904 17.7508 23.4649 17.8724 22.9786 18.0547C22.857 17.9331 22.7962 17.8116 22.6746 17.69C22.6746 17.8723 22.6746 17.9939 22.6746 18.1763C22.4923 18.2371 22.3707 18.2979 22.1883 18.3587C22.1275 18.2979 22.0667 18.1763 22.0059 18.1155C22.0059 18.2371 22.0059 18.3587 22.0059 18.4802C21.6412 18.6626 21.2765 18.845 20.9117 19.0274C20.8509 18.9666 20.7901 18.9058 20.7293 18.845C20.7293 18.9058 20.7293 19.0274 20.7901 19.0881C20.4254 19.3313 20.0607 19.5745 19.6351 19.8784C19.6351 19.8784 19.5743 18.9058 20.4862 17.6292L20.6686 17.4468C21.0941 16.9605 21.6412 16.4134 22.4315 16.0486C22.6138 16.1702 22.7354 16.2918 22.857 16.4134C22.7962 16.231 22.7962 16.1094 22.7354 15.9271C23.3433 15.6839 24.012 15.5623 24.7415 15.5623C24.7415 15.6839 24.7415 15.8055 24.7415 15.9271C24.8631 15.8055 24.9239 15.6839 25.0455 15.5623C25.6534 15.6231 26.3221 15.7447 26.9907 16.0486L27.1731 16.1702C27.781 16.4742 28.3281 16.9605 28.8145 17.5684C28.8145 17.5684 27.6594 17.2644 26.2005 17.386C26.0181 17.1429 25.9573 16.9605 25.8357 16.8389Z" fill="white"/>
</g>
</g>
<g id="Group_59">
<g id="Group_60">
<path id="Vector_27" d="M26.079 20.0608C25.9574 20.1824 25.8967 20.3648 25.7751 20.4863C25.4711 20.3648 25.1064 20.2432 24.7416 20.1216C24.7416 20 24.6808 19.8784 24.6808 19.7569C24.6201 19.8784 24.6201 19.9392 24.5593 20.0608C24.1337 19.9392 23.7082 19.8784 23.2219 19.8176C23.1611 19.6961 23.1611 19.5137 23.1003 19.3921C23.0395 19.5137 22.9787 19.6353 22.9179 19.7569C22.7356 19.7569 22.614 19.6961 22.4316 19.6961C22.4316 19.5745 22.3708 19.5137 22.3708 19.3921C22.31 19.4529 22.2492 19.5745 22.1884 19.6353C21.8237 19.6353 21.3982 19.6353 21.0334 19.6353C21.0334 19.5745 20.9726 19.5137 20.9726 19.3921C20.9726 19.4529 20.9119 19.5745 20.9119 19.6353C20.4863 19.6353 20.0608 19.6961 19.6353 19.7569C19.6353 19.7569 20 18.9058 21.3374 18.2979L21.5805 18.1763C22.1277 17.9331 22.8571 17.7508 23.6474 17.8116H23.9514C24.5593 17.8723 25.1672 18.0547 25.7751 18.3587L26.0182 18.4803C26.5046 18.7842 26.9909 19.2097 27.4164 19.6961L27.538 19.8784C27.9027 20.4256 28.1459 21.0334 28.2675 21.7629C28.2675 21.7629 27.4164 21.0335 26.1398 20.4863C26.079 20.4256 26.079 20.2432 26.079 20.0608Z" fill="white"/>
</g>
</g>
<g id="Group_61">
<g id="Group_62">
<path id="Vector_28" d="M24.4374 22.7964C24.3159 22.8572 24.1943 22.9179 24.0119 23.0395C23.8295 22.7964 23.5864 22.5532 23.404 22.3101C23.4648 22.1885 23.4648 22.1277 23.5256 22.0061C23.4648 22.0669 23.3432 22.1277 23.2824 22.1885C22.9785 21.9453 22.7353 21.6414 22.3706 21.3982C22.4314 21.2766 22.4314 21.155 22.4922 21.0335C22.3706 21.0942 22.249 21.155 22.1882 21.2158C22.0666 21.155 21.945 21.0335 21.8235 20.9727C21.8235 20.9119 21.8843 20.7903 21.8843 20.7295C21.8235 20.7903 21.7019 20.7903 21.6411 20.8511C21.3979 20.6687 21.094 20.4863 20.7292 20.3648C20.7292 20.304 20.79 20.2432 20.79 20.1824C20.7292 20.2432 20.6684 20.304 20.6077 20.304C20.3037 20.1216 19.939 20 19.5742 19.8784C19.5742 19.8784 20.2429 19.3921 21.4587 19.4529H21.7019C22.249 19.5137 22.8569 19.6961 23.404 20.0608L23.6472 20.2432C24.0727 20.5471 24.4982 20.9727 24.8022 21.459L24.9238 21.6414C25.1669 22.0669 25.3493 22.614 25.4101 23.1611V23.3435C25.4709 23.8906 25.4101 24.4985 25.1669 25.0456C25.1669 25.0456 24.863 24.1338 24.1335 23.1611C24.3159 23.1003 24.3767 22.918 24.4374 22.7964Z" fill="white"/>
</g>
</g>
<g id="Group_63">
<g id="Group_64">
<path id="Vector_29" d="M22.1882 23.8298C22.0666 23.8298 21.945 23.8298 21.8235 23.8298C21.7627 23.5866 21.7019 23.3435 21.5803 23.0395C21.6411 22.9787 21.7019 22.9179 21.7627 22.8571C21.7019 22.8571 21.5803 22.9179 21.5195 22.9179C21.3979 22.614 21.2763 22.31 21.1548 22.0061C21.2156 21.9453 21.2763 21.8237 21.3371 21.7629C21.2156 21.7629 21.094 21.7629 21.0332 21.8237C20.9724 21.7021 20.9116 21.6413 20.8508 21.5198C20.9116 21.459 20.9724 21.3982 20.9724 21.3374C20.9116 21.3374 20.79 21.3374 20.7292 21.3374C20.6077 21.0942 20.4253 20.8511 20.2429 20.6079C20.3037 20.5471 20.3037 20.5471 20.3645 20.4863C20.3037 20.4863 20.2429 20.5471 20.1821 20.5471C19.9998 20.3039 19.8174 20.0608 19.5742 19.8176C19.5742 19.8176 20.2429 19.696 21.1548 20.2432L21.3371 20.3647C21.7019 20.6079 22.1274 20.9726 22.4314 21.459L22.5529 21.6413C22.7353 22.0061 22.9177 22.4924 22.9785 22.9787V23.1611C22.9785 23.5866 22.9785 24.0729 22.7961 24.4985L22.7353 24.6201C22.5529 25.0456 22.3098 25.4711 21.945 25.8359C21.945 25.8359 22.0666 24.9848 21.8843 24.0122C21.945 24.0122 22.0666 23.9514 22.1882 23.8298Z" fill="white"/>
</g>
</g>
</g>
<g id="Group_65">
<g id="Group_66">
<g id="Group_67">
<path id="Vector_30" d="M16.9607 13.4347C16.8391 13.5562 16.7175 13.7386 16.6567 13.8602C16.8999 14.1033 17.143 14.4073 17.3862 14.772C17.5078 14.7112 17.6294 14.7113 17.7509 14.7113C17.6901 14.7721 17.5686 14.8936 17.5078 14.9544C17.7509 15.3192 18.0549 15.7447 18.2981 16.1702C18.4804 16.1702 18.602 16.1094 18.7844 16.1094C18.6628 16.231 18.602 16.3526 18.4804 16.4742C18.5412 16.5958 18.6628 16.7781 18.7236 16.9605C18.8452 16.9605 18.906 16.8997 19.0275 16.8997C18.9667 17.0213 18.906 17.0821 18.8452 17.1429C19.0275 17.5076 19.1491 17.8724 19.3315 18.2979C19.3923 18.2979 19.5139 18.2979 19.5746 18.2979C19.5139 18.3587 19.4531 18.4195 19.3923 18.4802C19.5139 18.9058 19.6354 19.3313 19.757 19.8176C19.757 19.8176 20.4257 19.0882 20.6081 17.5684C20.4865 17.5076 20.3649 17.4468 20.2433 17.386C20.3649 17.3252 20.4865 17.3252 20.6689 17.2644C20.6689 16.5957 20.6081 15.8663 20.2433 15.076C20.061 15.076 19.8786 15.076 19.6962 15.0152C19.8178 14.8936 20.0002 14.8328 20.1218 14.7113C19.8178 14.1034 19.3923 13.5562 18.8452 13.0699C18.7844 13.1307 18.7236 13.2523 18.602 13.3131C18.602 13.1915 18.602 13.0091 18.602 12.8876C18.1157 12.5228 17.5078 12.1581 16.8391 11.9757L16.5959 11.9149C15.9272 11.7325 15.1977 11.7325 14.4683 11.8541C14.4683 11.8541 15.5625 12.4012 16.5351 13.4347C16.5351 13.617 16.7783 13.4955 16.9607 13.4347Z" fill="white"/>
</g>
</g>
<g id="Group_68">
<g id="Group_69">
<path id="Vector_31" d="M14.2859 15.4407C14.2859 15.6231 14.2251 15.8055 14.2251 15.9878C14.5898 16.1094 14.9545 16.231 15.3193 16.4134C15.4409 16.3526 15.5017 16.231 15.6232 16.1702C15.5624 16.2918 15.5624 16.4134 15.5017 16.535C15.9272 16.7173 16.3527 16.9605 16.7783 17.2644C16.8998 17.2037 17.0214 17.0821 17.143 17.0213C17.0822 17.2037 17.0822 17.3253 17.0214 17.4468C17.143 17.5684 17.3254 17.6292 17.4469 17.7508C17.5077 17.69 17.6293 17.6292 17.6901 17.5684C17.6901 17.69 17.6293 17.8116 17.6293 17.9331C17.9333 18.1763 18.2372 18.4803 18.602 18.7842C18.6628 18.7234 18.7235 18.7234 18.8451 18.6626C18.7843 18.7234 18.7843 18.845 18.7235 18.9058C19.0275 19.2097 19.3314 19.5745 19.6354 19.9392C19.6354 19.9392 19.8786 19.0274 19.3314 17.5684C19.2099 17.5684 19.0275 17.5684 18.9059 17.6292C19.0275 17.5076 19.0883 17.4468 19.2099 17.3252C18.9059 16.7173 18.4804 16.1094 17.8725 15.5623C17.6901 15.6231 17.5077 15.6839 17.3254 15.8055C17.3862 15.6839 17.5077 15.5015 17.5685 15.3799C17.0214 15.0152 16.4135 14.7113 15.684 14.5289C15.684 14.6505 15.6232 14.7721 15.6232 14.8936C15.5624 14.7721 15.5017 14.6505 15.4409 14.4681C14.833 14.3465 14.1643 14.3465 13.4348 14.4681L13.1916 14.5289C12.5229 14.7113 11.8542 15.0152 11.3071 15.5015C11.3071 15.5015 12.5229 15.5015 13.9211 15.9271C13.9819 15.6839 14.1643 15.5623 14.2859 15.4407Z" fill="white"/>
</g>
</g>
<g id="Group_70">
<g id="Group_71">
<path id="Vector_32" d="M13.2524 18.4803C13.3132 18.6626 13.374 18.7842 13.4348 18.9666C13.7995 18.9058 14.1643 18.9058 14.529 18.845C14.5898 18.7234 14.5898 18.6018 14.6506 18.4803C14.6506 18.6018 14.7114 18.7234 14.7114 18.7842C15.1369 18.7842 15.6232 18.7842 16.1096 18.845C16.1703 18.7234 16.2311 18.6018 16.2919 18.4803C16.3527 18.6018 16.3527 18.7842 16.4135 18.9058C16.5959 18.9058 16.7175 18.9666 16.8998 18.9666C16.9606 18.9058 16.9606 18.7842 17.0214 18.7234C17.0822 18.845 17.0822 18.9058 17.143 19.0274C17.5077 19.0882 17.8725 19.2097 18.298 19.2705C18.3588 19.2097 18.3588 19.1489 18.4196 19.0882C18.4196 19.1489 18.4196 19.2705 18.4196 19.3313C18.7843 19.4529 19.2099 19.5745 19.6354 19.7569C19.6354 19.7569 19.453 18.845 18.3588 17.9331L18.1764 17.7508C17.6901 17.386 17.0822 17.0821 16.2919 16.8997L15.988 16.8389C15.3801 16.7781 14.7114 16.7781 14.0427 16.9605L13.7995 17.0213C13.2524 17.2037 12.6445 17.5076 12.1582 17.8724L11.9758 17.9939C11.4895 18.4195 11.064 18.9666 10.8208 19.6353C10.8208 19.6353 11.8542 19.0882 13.1916 18.9058C13.1308 18.845 13.1916 18.6626 13.2524 18.4803Z" fill="white"/>
</g>
</g>
<g id="Group_72">
<g id="Group_73">
<path id="Vector_33" d="M14.2244 21.5198C14.346 21.6413 14.4676 21.7021 14.5892 21.8237C14.8323 21.6413 15.0755 21.459 15.3795 21.2766C15.3795 21.155 15.3187 21.0942 15.3187 20.9726C15.3795 21.0334 15.4402 21.155 15.501 21.2158C15.805 21.0334 16.1697 20.8511 16.5953 20.6687C16.5953 20.5471 16.5953 20.4255 16.5953 20.3039C16.7168 20.3647 16.7776 20.4863 16.8384 20.6079C16.96 20.5471 17.0816 20.4863 17.264 20.4255C17.264 20.3647 17.264 20.2432 17.264 20.1824C17.3247 20.2432 17.3855 20.304 17.4463 20.3647C17.7503 20.2432 18.0542 20.1824 18.419 20.0608C18.419 20 18.419 19.9392 18.419 19.8784C18.4798 19.9392 18.4798 20 18.5406 20.0608C18.9053 20 19.27 19.9392 19.6348 19.8784C19.6348 19.8784 19.0877 19.2705 17.8719 19.0274L17.6287 18.9666C17.0816 18.9058 16.4737 18.9058 15.805 19.1489L15.5618 19.2705C15.0755 19.4529 14.5892 19.7568 14.1636 20.1824L13.9813 20.3647C13.6165 20.7295 13.3126 21.2158 13.1302 21.7021L13.0694 21.8845C12.8871 22.4316 12.8263 23.0395 12.8871 23.6474C12.8871 23.6474 13.4342 22.7963 14.346 22.0669C14.2852 21.8845 14.2244 21.7021 14.2244 21.5198Z" fill="white"/>
</g>
</g>
<g id="Group_74">
<g id="Group_75">
<path id="Vector_34" d="M16.1696 23.1003C16.2912 23.1611 16.4128 23.1611 16.5343 23.2219C16.6559 22.9787 16.7775 22.7356 16.8991 22.5532C16.8383 22.4924 16.7775 22.4316 16.7775 22.3101C16.8383 22.3708 16.8991 22.3708 17.0207 22.4316C17.203 22.1885 17.3854 21.8845 17.6286 21.6414C17.5678 21.5198 17.507 21.459 17.507 21.3374C17.6286 21.3982 17.6893 21.3982 17.8109 21.459C17.8717 21.3982 17.9933 21.2766 18.0541 21.2158C17.9933 21.155 17.9933 21.0942 17.9325 21.0335C17.9933 21.0335 18.0541 21.0943 18.1757 21.0943C18.358 20.9119 18.6012 20.7295 18.7836 20.4863C18.7836 20.4256 18.7228 20.3648 18.7228 20.304C18.7836 20.304 18.8444 20.3648 18.9052 20.3648C19.1483 20.1824 19.3915 20 19.6954 19.8177C19.6954 19.8177 19.0875 19.5745 18.0541 19.8177L17.8717 19.8784C17.4462 20 17.0207 20.2432 16.5951 20.6687L16.4128 20.8511C16.1088 21.155 15.8656 21.5806 15.6833 22.0669L15.6225 22.2493C15.5009 22.6748 15.4401 23.1003 15.5009 23.5866V23.769C15.5617 24.2553 15.7441 24.7417 15.9872 25.1672C15.9872 25.1672 16.1088 24.3161 16.4735 23.4651C16.352 23.3435 16.2304 23.2219 16.1696 23.1003Z" fill="white"/>
</g>
</g>
</g>
</g>
</g>
</g>
<g id="Group_76">
<g id="Group_77">
<path id="Vector_35" d="M24.9234 33.4346L26.0176 33.6778C26.0176 33.6778 21.276 47.4772 16.7775 69.1793L12.0967 67.6596C12.1575 67.6596 19.2091 46.079 24.9234 33.4346Z" fill="white"/>
<g id="Group_78">
<g id="Group_79">
<g id="Group_80">
<g id="Group_81">
<path id="Vector_36" d="M30.4557 31.9757C30.395 32.0973 30.395 32.2188 30.3342 32.4012C30.0302 32.4012 29.7871 32.4012 29.4831 32.4012C29.4223 32.3404 29.4223 32.2188 29.3615 32.1581C29.3615 32.2188 29.3615 32.3404 29.3615 32.4012C28.9968 32.4012 28.632 32.462 28.2673 32.5228C28.2065 32.4012 28.1457 32.3404 28.0849 32.2188C28.0849 32.3404 28.0241 32.462 28.0241 32.5836C27.9026 32.5836 27.781 32.6444 27.6594 32.6444C27.5986 32.5836 27.5986 32.5228 27.5378 32.462C27.5378 32.5228 27.477 32.6444 27.477 32.7052C27.1731 32.7659 26.8691 32.8875 26.5652 33.0091C26.5044 32.9483 26.5044 32.8875 26.4436 32.8267C26.4436 32.8875 26.4436 32.9483 26.4436 33.0091C26.1396 33.1307 25.8357 33.2523 25.5317 33.4346C25.5317 33.4346 25.5925 32.7052 26.3828 31.9149L26.5044 31.7933C26.8691 31.4894 27.3554 31.1854 27.9633 31.003C28.0849 31.1246 28.1457 31.1854 28.2673 31.307C28.2673 31.1854 28.2673 31.0638 28.2065 30.9422C28.6928 30.8207 29.1792 30.8207 29.7263 30.8815C29.7263 30.9422 29.6655 31.0638 29.6655 31.1246C29.7263 31.0638 29.8478 31.003 29.9086 30.8815C30.395 31.003 30.8205 31.1854 31.246 31.4894L31.3676 31.6109C31.7931 31.9149 32.1579 32.3404 32.401 32.8267C32.401 32.8267 31.55 32.462 30.5165 32.4012C30.5773 32.2796 30.5165 32.1581 30.4557 31.9757Z" fill="white"/>
</g>
</g>
<g id="Group_82">
<g id="Group_83">
<path id="Vector_37" d="M30.3339 34.4073C30.2731 34.5289 30.1516 34.5897 30.0908 34.7113C29.8476 34.5897 29.6044 34.4681 29.3613 34.3465C29.3613 34.2857 29.3613 34.1642 29.3613 34.1034C29.3005 34.1642 29.3005 34.2249 29.2397 34.3465C28.9358 34.2249 28.6318 34.1034 28.2671 33.9818C28.2671 33.8602 28.2671 33.7386 28.2063 33.6778C28.1455 33.7386 28.0847 33.8602 28.0239 33.921C27.9023 33.8602 27.7807 33.8602 27.6592 33.8602C27.6592 33.7994 27.6592 33.7386 27.6592 33.617C27.5984 33.6778 27.5376 33.7386 27.4768 33.7994C27.2336 33.7386 26.9297 33.6778 26.6257 33.6778C26.6257 33.617 26.6257 33.5563 26.6257 33.4955C26.6257 33.5563 26.5649 33.617 26.5649 33.6778C26.261 33.617 25.957 33.617 25.5923 33.617C25.5923 33.617 25.957 33.0699 26.9905 32.7052L27.1728 32.6444C27.5984 32.5228 28.1455 32.5228 28.6926 32.5836L28.9358 32.6444C29.3613 32.766 29.8476 32.9484 30.2123 33.2523L30.3947 33.3739C30.7595 33.6778 31.0634 34.0426 31.2458 34.4681L31.3066 34.5897C31.4889 35.0152 31.6105 35.5015 31.6105 36.0486C31.6105 36.0486 31.0634 35.38 30.2123 34.8328C30.2731 34.7113 30.2731 34.5289 30.3339 34.4073Z" fill="white"/>
</g>
</g>
<g id="Group_84">
<g id="Group_85">
<path id="Vector_38" d="M28.7534 36.231C28.6318 36.2918 28.5102 36.2918 28.4494 36.3526C28.3278 36.1702 28.2063 35.9878 28.0847 35.7447C28.1455 35.6839 28.1455 35.6231 28.2063 35.5623C28.1455 35.6231 28.0847 35.6231 28.0239 35.6839C27.8415 35.4407 27.6592 35.2584 27.4768 35.0152C27.5376 34.9544 27.5376 34.8328 27.5984 34.7721C27.5376 34.8328 27.416 34.8328 27.3552 34.8936C27.2944 34.8328 27.2336 34.772 27.112 34.6505C27.112 34.5897 27.1728 34.5289 27.1728 34.4681C27.112 34.4681 27.0513 34.5289 26.9905 34.5289C26.8081 34.3465 26.6257 34.2249 26.3826 34.0426C26.3826 33.9818 26.4433 33.921 26.4433 33.921C26.3826 33.921 26.3826 33.9818 26.3218 33.9818C26.0786 33.8602 25.8962 33.6778 25.5923 33.5562C25.5923 33.5562 26.1394 33.3131 27.0513 33.4955L27.2336 33.5562C27.5984 33.6778 28.0239 33.8602 28.4494 34.1641L28.6318 34.2857C28.9357 34.5289 29.1789 34.8936 29.3613 35.3192L29.4221 35.5015C29.5437 35.8663 29.6044 36.2918 29.6044 36.7173V36.8389C29.6044 37.2644 29.4829 37.69 29.2397 38.0547C29.2397 38.0547 29.1181 37.3252 28.6926 36.535C28.6318 36.4134 28.6926 36.2918 28.7534 36.231Z" fill="white"/>
</g>
</g>
<g id="Group_86">
<g id="Group_87">
<path id="Vector_39" d="M26.9907 36.7173C26.8691 36.7173 26.8083 36.7173 26.6868 36.6565C26.6868 36.4742 26.626 36.2918 26.626 36.0486C26.6868 35.9878 26.7475 35.9879 26.8083 35.9271C26.7475 35.9271 26.6868 35.9271 26.626 35.9271C26.5652 35.6839 26.5044 35.4407 26.4436 35.1976C26.5044 35.1368 26.5652 35.076 26.626 35.0152C26.5652 35.0152 26.4436 35.0152 26.3828 35.0152C26.3828 34.9544 26.322 34.8328 26.322 34.7721C26.3828 34.7113 26.3828 34.7113 26.4436 34.6505C26.3828 34.6505 26.322 34.6505 26.2612 34.6505C26.2004 34.4681 26.0789 34.2857 26.0181 34.0426C26.0789 34.0426 26.0789 33.9818 26.1396 33.9818C26.0789 33.9818 26.0789 33.9818 26.0181 33.9818C25.8965 33.7994 25.7749 33.617 25.6533 33.3739C25.6533 33.3739 26.1396 33.3739 26.7475 33.8602L26.8691 33.921C27.1123 34.1641 27.3554 34.4681 27.5378 34.8328L27.5986 35.0152C27.7202 35.3192 27.781 35.6839 27.781 36.0486V36.1702C27.7202 36.4742 27.6594 36.8389 27.477 37.1429L27.4162 37.2644C27.2339 37.5684 26.9907 37.8724 26.6868 38.0547C26.6868 38.0547 26.8691 37.4468 26.8083 36.7173C26.8083 36.8389 26.8691 36.7781 26.9907 36.7173Z" fill="white"/>
</g>
</g>
</g>
<g id="Group_88">
<g id="Group_89">
<g id="Group_90">
<path id="Vector_40" d="M24.3159 28.5106C24.1943 28.6322 24.1335 28.693 24.0119 28.8146C24.1943 29.0578 24.3159 29.3009 24.4375 29.5441C24.5591 29.5441 24.6198 29.5441 24.7414 29.5441C24.6806 29.6049 24.6198 29.6657 24.4983 29.7264C24.6806 30.0304 24.8022 30.3951 24.9238 30.6991C25.0454 30.6991 25.167 30.6991 25.2885 30.6991C25.2277 30.7599 25.1062 30.8815 25.0454 30.9423C25.1062 31.0638 25.1062 31.1854 25.167 31.307C25.2278 31.307 25.3493 31.307 25.4101 31.307C25.3493 31.3678 25.2885 31.4286 25.2277 31.4894C25.2885 31.7933 25.3493 32.0973 25.4101 32.4012C25.4709 32.4012 25.5317 32.4012 25.5925 32.4012C25.5317 32.462 25.4709 32.462 25.4101 32.5228C25.4709 32.8268 25.4709 33.1915 25.5317 33.5562C25.5317 33.5562 26.0788 33.1307 26.3828 32.0365C26.322 31.9757 26.2004 31.9149 26.1396 31.8541C26.2612 31.8541 26.322 31.8541 26.4436 31.7933C26.5651 31.307 26.5651 30.7599 26.3828 30.152C26.2612 30.0912 26.0788 30.0912 25.9572 30.0912C26.0788 30.0304 26.2004 29.9696 26.322 29.9088C26.2004 29.4225 25.9572 28.997 25.5925 28.5714C25.5317 28.6322 25.4709 28.693 25.4101 28.7538C25.4101 28.6322 25.4709 28.5106 25.4709 28.4498C25.167 28.0851 24.7414 27.7812 24.2551 27.5988L24.0727 27.538C23.5864 27.3556 23.0393 27.234 22.4922 27.2948C22.4922 27.2948 23.2217 27.842 23.8296 28.693C24.0727 28.5714 24.1943 28.5106 24.3159 28.5106Z" fill="white"/>
</g>
</g>
<g id="Group_91">
<g id="Group_92">
<path id="Vector_41" d="M22.1885 29.6049C22.1277 29.7265 22.1277 29.848 22.0669 30.0304C22.31 30.152 22.5532 30.3344 22.7964 30.4559C22.8571 30.3951 22.9787 30.3343 23.0395 30.3343C22.9787 30.3951 22.9787 30.5167 22.9179 30.5775C23.2219 30.7599 23.465 31.003 23.769 31.2462C23.8906 31.1854 23.9514 31.1246 24.0729 31.1246C24.0122 31.2462 24.0122 31.3678 23.9514 31.4286C24.0122 31.4894 24.1337 31.611 24.1945 31.7325C24.2553 31.6717 24.3161 31.6717 24.3769 31.6109C24.3769 31.6717 24.3161 31.7933 24.3161 31.8541C24.4985 32.0973 24.7416 32.2796 24.924 32.5836C24.9848 32.5836 25.0456 32.5228 25.1064 32.5228C25.0456 32.5836 25.0456 32.6444 24.9848 32.7052C25.1672 32.9483 25.3495 33.2523 25.5319 33.5562C25.5319 33.5562 25.8359 32.8875 25.5927 31.7933C25.4711 31.7933 25.4103 31.7933 25.2888 31.7933C25.3495 31.7325 25.4711 31.6717 25.5319 31.6109C25.4103 31.1246 25.1672 30.6383 24.7416 30.152C24.6201 30.2128 24.4377 30.2128 24.3161 30.2736C24.3769 30.152 24.4985 30.0912 24.5593 29.9696C24.1945 29.6049 23.769 29.3009 23.2827 29.1185C23.2219 29.1793 23.2219 29.3009 23.1611 29.3617C23.1611 29.2401 23.1003 29.1185 23.0395 29.0577C22.614 28.8754 22.0669 28.8146 21.5805 28.8146H21.3982C20.9119 28.8754 20.3647 28.997 19.8784 29.3009C19.8784 29.3009 20.7903 29.4225 21.7021 29.9088C21.9453 29.7872 22.0669 29.7265 22.1885 29.6049Z" fill="white"/>
</g>
</g>
<g id="Group_93">
<g id="Group_94">
<path id="Vector_42" d="M21.0334 31.7933C21.0334 31.9149 21.0942 32.0365 21.0942 32.1581C21.3374 32.1581 21.6413 32.1581 21.8845 32.2188C21.9453 32.1581 21.9453 32.0365 22.0061 31.9757C22.0061 32.0365 22.0061 32.1581 22.0061 32.2188C22.31 32.2796 22.6748 32.3404 22.9787 32.4012C23.0395 32.3404 23.1003 32.2188 23.1611 32.1581C23.1611 32.2796 23.1611 32.4012 23.2219 32.462C23.3435 32.5228 23.465 32.5228 23.5866 32.5836C23.6474 32.5228 23.6474 32.462 23.7082 32.4012C23.7082 32.462 23.7082 32.5836 23.769 32.6444C24.0121 32.766 24.3161 32.8268 24.5593 32.9483C24.6201 32.8875 24.62 32.8875 24.6808 32.8268C24.6808 32.8875 24.6808 32.9483 24.6808 33.0091C24.924 33.1307 25.228 33.3131 25.5319 33.4954C25.5319 33.4954 25.4711 32.8268 24.8024 31.9757L24.6808 31.8541C24.3769 31.5502 23.9514 31.2462 23.4042 31.003L23.1611 30.9422C22.7356 30.8207 22.2492 30.7599 21.7629 30.8207H21.5805C21.155 30.8815 20.6687 31.0638 20.3039 31.307L20.1824 31.3678C19.7568 31.6109 19.3921 31.9757 19.1489 32.462C19.1489 32.462 19.9392 32.2188 20.9726 32.1581C20.9118 32.0365 20.9726 31.9149 21.0334 31.7933Z" fill="white"/>
</g>
</g>
<g id="Group_95">
<g id="Group_96">
<path id="Vector_43" d="M21.3982 34.1034C21.459 34.1641 21.5198 34.2857 21.6413 34.3465C21.8237 34.2249 22.0669 34.1641 22.2492 34.0426C22.2492 33.9818 22.2492 33.8602 22.2492 33.7994C22.31 33.8602 22.31 33.921 22.3708 33.9818C22.614 33.8602 22.9179 33.7994 23.2219 33.6778C23.2219 33.5562 23.2219 33.4954 23.2827 33.3739C23.3435 33.4347 23.4043 33.5562 23.465 33.617C23.5866 33.617 23.6474 33.5562 23.769 33.5562C23.769 33.4955 23.769 33.4347 23.769 33.3739C23.8298 33.4347 23.8298 33.4955 23.8906 33.5562C24.1337 33.4955 24.3769 33.4954 24.6201 33.4347C24.6201 33.3739 24.6201 33.3131 24.6201 33.3131C24.6201 33.3739 24.6809 33.4347 24.6809 33.4347C24.924 33.4347 25.228 33.4347 25.5319 33.4347C25.5319 33.4347 25.228 32.9483 24.3161 32.5836L24.1337 32.5228C23.769 32.4012 23.2827 32.3404 22.7964 32.462L22.614 32.5228C22.2492 32.5836 21.8237 32.766 21.459 33.0091L21.3374 33.1307C21.0334 33.3739 20.7295 33.6778 20.5471 34.0426L20.4863 34.1641C20.304 34.5289 20.1824 34.9544 20.1216 35.4407C20.1216 35.4407 20.6079 34.8936 21.3982 34.4681C21.3982 34.3465 21.3982 34.2249 21.3982 34.1034Z" fill="white"/>
</g>
</g>
<g id="Group_97">
<g id="Group_98">
<path id="Vector_44" d="M22.6741 35.5015C22.7349 35.5623 22.8564 35.5623 22.9172 35.6231C23.0388 35.4407 23.1604 35.3191 23.282 35.1368C23.282 35.076 23.2212 35.0152 23.2212 34.9544C23.282 35.0152 23.3428 35.0152 23.4035 35.076C23.5859 34.8936 23.7683 34.7112 23.9507 34.5289C23.9507 34.4681 23.8899 34.4073 23.8899 34.2857C23.9507 34.3465 24.0114 34.3465 24.0722 34.4073C24.133 34.3465 24.1938 34.2857 24.2546 34.2249C24.2546 34.1641 24.1938 34.1034 24.1938 34.1034C24.2546 34.1034 24.3154 34.1641 24.3762 34.1641C24.5586 34.0426 24.7409 33.921 24.9233 33.7994C24.9233 33.7386 24.9233 33.7386 24.8625 33.6778C24.9233 33.6778 24.9233 33.7386 24.9841 33.7386C25.1665 33.617 25.4096 33.4954 25.592 33.4347C25.592 33.4347 25.1665 33.1915 24.3762 33.2523H24.2546C23.9507 33.3131 23.5859 33.4347 23.2212 33.6778L23.0996 33.7994C22.8564 33.9818 22.6133 34.2857 22.4309 34.5897L22.3701 34.7113C22.2485 35.0152 22.127 35.3192 22.127 35.6839V35.8055C22.127 36.1702 22.1877 36.535 22.3093 36.8997C22.3093 36.8997 22.4917 36.2918 22.8564 35.6839C22.7349 35.6839 22.6741 35.6231 22.6741 35.5015Z" fill="white"/>
</g>
</g>
</g>
</g>
</g>
</g>
</g>
<path id="Vector_45" d="M5.95703 68.6322V54.8936C31.185 54.8936 44.802 73.9818 44.802 73.9818H11.3674C8.38864 73.9818 5.95703 71.5502 5.95703 68.6322Z" fill="black"/>
<path id="Vector_46" d="M5.95703 54.8936C13.495 54.8936 19.9996 56.5958 25.4099 58.9666C38.1151 64.5593 44.8628 73.9818 44.8628 73.9818" stroke="white" stroke-width="3" stroke-miterlimit="10"/>
</g>
</g>
<path id="Vector_47" d="M11.3676 5.95743H181.459C184.437 5.95743 186.808 8.38906 186.808 11.307V68.5714C186.808 71.5501 184.377 73.921 181.459 73.921H11.3676C8.38886 73.921 6.01804 71.4893 6.01804 68.5714V11.307C5.95725 8.38906 8.38886 5.95743 11.3676 5.95743ZM11.3676 4.19452C7.41622 4.19452 4.19434 7.41641 4.19434 11.3678V68.6322C4.19434 72.5836 7.41622 75.8055 11.3676 75.8055H181.459C185.41 75.8055 188.632 72.5836 188.632 68.6322V11.3678C188.632 7.41641 185.41 4.19452 181.459 4.19452H11.3676Z" fill="black"/>
<g id="Group_99">
<g id="Group_100">
<g id="Group_101">
<g id="Group_102">
<path id="Vector_48" d="M54.1643 66.8693C55.1379 66.8693 55.9272 66.08 55.9272 65.1064C55.9272 64.1327 55.1379 63.3434 54.1643 63.3434C53.1906 63.3434 52.4014 64.1327 52.4014 65.1064C52.4014 66.08 53.1906 66.8693 54.1643 66.8693Z" fill="#1FC4B5"/>
</g>
<g id="Group_103">
<path id="Vector_49" d="M138.602 66.8693C139.575 66.8693 140.365 66.08 140.365 65.1064C140.365 64.1327 139.575 63.3435 138.602 63.3435C137.628 63.3435 136.839 64.1327 136.839 65.1064C136.839 66.08 137.628 66.8693 138.602 66.8693Z" fill="#1FC4B5"/>
</g>
</g>
</g>
<g id="Group_104">
<path id="Vector_50" d="M138.602 16.5957C139.575 16.5957 140.365 15.8064 140.365 14.8328C140.365 13.8592 139.575 13.0699 138.602 13.0699C137.628 13.0699 136.839 13.8592 136.839 14.8328C136.839 15.8064 137.628 16.5957 138.602 16.5957Z" fill="#1FC4B5"/>
<path id="Vector_51" d="M54.1643 16.5957C55.1379 16.5957 55.9272 15.8064 55.9272 14.8328C55.9272 13.8592 55.1379 13.0699 54.1643 13.0699C53.1906 13.0699 52.4014 13.8592 52.4014 14.8328C52.4014 15.8064 53.1906 16.5957 54.1643 16.5957Z" fill="#1FC4B5"/>
</g>
</g>
<path id="Vector_52" opacity="0.2" d="M181.459 5.95744H11.3681C8.38937 5.95744 6.01855 8.38907 6.01855 11.307V68.5714C6.01855 71.5501 8.45017 73.921 11.3681 73.921H181.459C184.438 73.921 186.809 71.4894 186.809 68.5714V11.307C186.809 8.38907 184.377 5.95744 181.459 5.95744ZM184.985 68.6322C184.985 70.5775 183.405 72.1581 181.459 72.1581H11.3681C9.42281 72.1581 7.84226 70.5775 7.84226 68.6322V11.3678C7.84226 9.4225 9.42281 7.84195 11.3681 7.84195H181.459C183.405 7.84195 184.985 9.4225 184.985 11.3678V68.6322Z" fill="#1FC4B5"/>
<path id="Vector_53" d="M11.3673 5.95744H181.458C184.437 5.95744 186.808 8.38907 186.808 11.307V68.5714C186.808 71.5501 184.376 73.921 181.458 73.921H11.3673C8.38854 73.921 6.01772 71.4894 6.01772 68.5714V11.307C5.95693 8.38907 8.38854 5.95744 11.3673 5.95744Z" stroke="black" stroke-miterlimit="10"/>
</g>
<g id="Group_105">
<g id="7269-HW">
<path d="M50.1983 30.0032C48.2299 32.9306 46.5643 36.0598 45.2015 39.391C43.8388 42.697 43.1574 45.9903 43.1574 49.271C43.1574 49.9019 43.17 50.4949 43.1953 51.0501H38.6149C38.6149 47.4666 39.2837 43.9083 40.6212 40.3752C41.9839 36.8422 43.6747 33.7507 45.6936 31.1009H35.9272V27.202H50.1983V30.0032Z" fill="white"/>
<path d="M59.2812 26.7477C61.1992 26.7477 62.7512 27.2651 63.9373 28.2997C65.1234 29.3092 65.7164 30.8612 65.7164 32.9558C65.7164 34.2933 65.4262 35.6056 64.8458 36.8926C64.2906 38.1797 63.6092 39.3532 62.8017 40.4131C62.0194 41.4478 61.0478 42.6086 59.8869 43.8957L58.5241 45.4856C58.0447 46.066 57.6535 46.6212 57.3507 47.1511H65.83V51.0501H52.1268V50.2173C52.1268 48.9555 52.3665 47.8073 52.846 46.7726C53.2498 45.7884 53.7671 44.8799 54.398 44.0471C55.0542 43.1891 55.9248 42.1544 57.01 40.943C57.9942 39.8327 58.7639 38.9115 59.3191 38.1797C59.8995 37.4478 60.379 36.6403 60.7575 35.757C61.1613 34.8485 61.3632 33.9022 61.3632 32.9179C61.3632 32.2366 61.1866 31.6435 60.8333 31.1388C60.4799 30.6088 59.9121 30.3439 59.1298 30.3439C58.3223 30.3439 57.7166 30.6845 57.3128 31.3659C56.9343 32.0473 56.745 32.9179 56.745 33.9779V35.3785H52.4296C52.4044 35.3028 52.3791 35.1513 52.3539 34.9242C52.3287 34.6719 52.3161 34.369 52.3161 34.0157C52.3161 31.5931 52.9722 29.776 54.2845 28.5647C55.622 27.3534 57.2876 26.7477 59.2812 26.7477Z" fill="white"/>
<path d="M74.7994 26.7477C76.9192 26.7477 78.4839 27.4543 79.4933 28.8675C80.528 30.2808 81.0453 32.1609 81.0453 34.5078H76.7678C76.7678 33.0946 76.6038 32.0347 76.2757 31.3281C75.9729 30.6215 75.4303 30.2682 74.648 30.2682C73.9666 30.2682 73.4493 30.571 73.096 31.1767C72.7679 31.7571 72.5408 32.5646 72.4146 33.5993C72.3136 34.634 72.2379 36.0851 72.1875 37.9526C72.5912 37.3469 73.1212 36.88 73.7773 36.552C74.4335 36.2239 75.1401 36.0598 75.8972 36.0598C77.7646 36.0598 79.1905 36.7665 80.1747 38.1797C81.1841 39.5929 81.6889 41.4478 81.6889 43.7443C81.6889 45.2837 81.3986 46.6464 80.8182 47.8325C80.263 48.9934 79.4807 49.8893 78.4713 50.5202C77.487 51.1511 76.364 51.4665 75.1022 51.4665C72.73 51.4665 70.9383 50.5833 69.7269 48.8167C68.5156 47.0502 67.9099 44.0471 67.9099 39.8074C67.9099 35.0378 68.4904 31.6688 69.6512 29.7003C70.8121 27.7319 72.5281 26.7477 74.7994 26.7477ZM74.913 39.4667C74.1306 39.4667 73.525 39.8579 73.096 40.6402C72.6669 41.3973 72.4524 42.432 72.4524 43.7443C72.4524 44.9808 72.6669 45.9903 73.096 46.7726C73.525 47.5549 74.1306 47.9461 74.913 47.9461C75.7205 47.9461 76.3262 47.5675 76.73 46.8105C77.159 46.0281 77.3735 45.0061 77.3735 43.7443C77.3735 42.432 77.1716 41.3973 76.7678 40.6402C76.364 39.8579 75.7457 39.4667 74.913 39.4667Z" fill="white"/>
<path d="M90.3554 26.7477C92.7276 26.7477 94.5194 27.6436 95.7307 29.4354C96.942 31.2019 97.5477 34.1924 97.5477 38.4068C97.5477 43.1512 96.9673 46.5202 95.8064 48.5139C94.6456 50.4823 92.9295 51.4665 90.6582 51.4665C88.5384 51.4665 86.9611 50.7599 85.9265 49.3467C84.8918 47.9335 84.3744 46.0534 84.3744 43.7064H88.652C88.652 45.1196 88.816 46.1795 89.1441 46.8862C89.4721 47.5928 90.0147 47.9461 90.7718 47.9461C91.756 47.9461 92.3995 47.353 92.7024 46.1669C93.0052 44.9556 93.1819 42.9998 93.2323 40.2995C92.8286 40.88 92.2986 41.3468 91.6425 41.7001C90.9863 42.0282 90.2797 42.1922 89.5226 42.1922C87.6551 42.1922 86.2293 41.4856 85.2451 40.0724C84.2609 38.6339 83.7688 36.7665 83.7688 34.47C83.7688 32.9053 84.0464 31.5426 84.6016 30.3817C85.182 29.2209 85.9643 28.325 86.9485 27.6941C87.958 27.0632 89.0936 26.7477 90.3554 26.7477ZM90.5068 30.2682C89.6993 30.2682 89.081 30.6593 88.652 31.4416C88.2482 32.1987 88.0463 33.2082 88.0463 34.47C88.0463 35.8075 88.2482 36.8674 88.652 37.6497C89.081 38.4068 89.6993 38.7854 90.5068 38.7854C91.3144 38.7854 91.9201 38.4068 92.3238 37.6497C92.7528 36.8674 92.9674 35.8075 92.9674 34.47C92.9674 33.2082 92.7528 32.1987 92.3238 31.4416C91.9201 30.6593 91.3144 30.2682 90.5068 30.2682Z" fill="white"/>
<path d="M99.1355 39.5803H107.501V43.7064H99.1355V39.5803Z" fill="white"/>
<path d="M122.112 51.0501V40.8295H114.617V51.0501H110.15V27.202H114.617V36.8548H122.112V27.202H126.579V51.0501H122.112Z" fill="white"/>
<path d="M142.627 35.8706C142.526 35.3406 142.425 34.6971 142.324 33.94C142.249 33.1829 142.198 32.6908 142.173 32.4637H142.021C141.996 32.7161 141.933 33.1955 141.832 33.9022C141.731 34.5835 141.63 35.2397 141.529 35.8706L138.35 51.0501H133.845L128.659 27.202H133.05L135.927 41.8894C136.028 42.3184 136.116 42.9115 136.192 43.6685C136.293 44.4256 136.356 44.9304 136.381 45.1827H136.533C136.558 44.9304 136.608 44.4256 136.684 43.6685C136.785 42.8862 136.873 42.2932 136.949 41.8894L139.864 27.202H144.936L147.737 41.8894C147.838 42.2679 147.939 42.8484 148.04 43.6307C148.141 44.413 148.204 44.9304 148.229 45.1827H148.343C148.368 44.9556 148.419 44.4761 148.494 43.7443C148.595 42.9872 148.696 42.3689 148.797 41.8894L151.712 27.202H155.535L150.387 51.0501H145.92L142.627 35.8706Z" fill="white"/>
</g>
<g id="Group_106">
<g id="Group_107">
<g id="HAWAII">
<path d="M88.4037 19.2324V16.9345H86.7186V19.2324H85.7144V13.8707H86.7186V16.0409H88.4037V13.8707H89.408V19.2324H88.4037Z" fill="white"/>
<path d="M93.4756 19.2324L93.1522 18.1771H91.1692L90.8458 19.2324H89.8756L91.6033 13.8707H92.7692L94.4969 19.2324H93.4756ZM92.1394 14.7643C92.1337 14.8154 92.1167 14.9232 92.0884 15.0877C92.06 15.2522 92.0288 15.3856 91.9947 15.4877L91.4415 17.2834H92.8798L92.3352 15.4877C92.3011 15.3742 92.2671 15.2381 92.233 15.0792C92.199 14.9203 92.1791 14.8154 92.1735 14.7643H92.1394Z" fill="white"/>
<path d="M97.288 15.8196C97.2653 15.7005 97.2426 15.5558 97.2199 15.3856C97.2029 15.2154 97.1915 15.1047 97.1858 15.0537H97.1518C97.1461 15.1104 97.1319 15.2182 97.1092 15.3771C97.0865 15.5303 97.0638 15.6778 97.0412 15.8196L96.3263 19.2324H95.3135L94.1475 13.8707H95.1348L95.7816 17.1728C95.8043 17.2693 95.8241 17.4026 95.8412 17.5728C95.8638 17.743 95.878 17.8565 95.8837 17.9132H95.9177C95.9234 17.8565 95.9348 17.743 95.9518 17.5728C95.9745 17.3969 95.9943 17.2636 96.0114 17.1728L96.6667 13.8707H97.8071L98.4369 17.1728C98.4596 17.2579 98.4823 17.3884 98.505 17.5643C98.5277 17.7402 98.5419 17.8565 98.5475 17.9132H98.5731C98.5787 17.8622 98.5901 17.7544 98.6071 17.5898C98.6298 17.4196 98.6525 17.2806 98.6752 17.1728L99.3305 13.8707H100.19L99.0326 19.2324H98.0284L97.288 15.8196Z" fill="white"/>
<path d="M103.441 19.2324L103.117 18.1771H101.134L100.811 19.2324H99.8407L101.568 13.8707H102.734L104.462 19.2324H103.441ZM102.105 14.7643C102.099 14.8154 102.082 14.9232 102.053 15.0877C102.025 15.2522 101.994 15.3856 101.96 15.4877L101.407 17.2834H102.845L102.3 15.4877C102.266 15.3742 102.232 15.2381 102.198 15.0792C102.164 14.9203 102.144 14.8154 102.139 14.7643H102.105Z" fill="white"/>
<path d="M104.861 13.8707H105.857V19.2324H104.861V13.8707Z" fill="white"/>
<path d="M106.648 13.8707H107.644V19.2324H106.648V13.8707Z" fill="white"/>
</g>
</g>
<g id="Group_108">
<g id="ALOHA BEACH">
<path d="M77.1562 69.2444L76.8327 68.1891H74.8498L74.5264 69.2444H73.5562L75.2838 63.8827H76.4498L78.1774 69.2444H77.1562ZM75.82 64.7763C75.8143 64.8274 75.7973 64.9352 75.7689 65.0997C75.7405 65.2642 75.7093 65.3976 75.6753 65.4997L75.1221 67.2954H76.5604L76.0157 65.4997C75.9817 65.3862 75.9476 65.2501 75.9136 65.0912C75.8796 64.9323 75.8597 64.8274 75.854 64.7763H75.82Z" fill="white"/>
<path d="M81.9302 68.3082V69.2444H78.6536V63.8827H79.6578V68.3082H81.9302Z" fill="white"/>
<path d="M84.602 63.7805C85.3112 63.7805 85.8587 64.0132 86.2445 64.4784C86.636 64.938 86.8317 65.633 86.8317 66.5635C86.8317 67.4883 86.636 68.1834 86.2445 68.6486C85.8587 69.1082 85.3112 69.338 84.602 69.338C83.8927 69.338 83.3424 69.1082 82.9509 68.6486C82.5651 68.1834 82.3722 67.4883 82.3722 66.5635C82.3722 65.6387 82.5651 64.9437 82.9509 64.4784C83.3424 64.0132 83.8927 63.7805 84.602 63.7805ZM84.602 64.6401C84.2105 64.6401 83.9126 64.7933 83.7083 65.0997C83.5098 65.4004 83.4105 65.8231 83.4105 66.3678V66.7593C83.4105 67.304 83.5098 67.7266 83.7083 68.0274C83.9126 68.3281 84.2105 68.4784 84.602 68.4784C84.9935 68.4784 85.2913 68.3281 85.4956 68.0274C85.6998 67.7266 85.802 67.304 85.802 66.7593V66.3678C85.802 65.8231 85.6998 65.4004 85.4956 65.0997C85.2913 64.7933 84.9935 64.6401 84.602 64.6401Z" fill="white"/>
<path d="M90.2608 69.2444V66.9465H88.5757V69.2444H87.5714V63.8827H88.5757V66.0529H90.2608V63.8827H91.2651V69.2444H90.2608Z" fill="white"/>
<path d="M95.3327 69.2444L95.0093 68.1891H93.0263L92.7029 69.2444H91.7327L93.4603 63.8827H94.6263L96.354 69.2444H95.3327ZM93.9965 64.7763C93.9908 64.8274 93.9738 64.9352 93.9454 65.0997C93.9171 65.2642 93.8859 65.3976 93.8518 65.4997L93.2986 67.2954H94.7369L94.1923 65.4997C94.1582 65.3862 94.1242 65.2501 94.0901 65.0912C94.0561 64.9323 94.0362 64.8274 94.0306 64.7763H93.9965Z" fill="white"/>
<path d="M100.691 63.8827C101.111 63.8827 101.457 64.0075 101.729 64.2571C102.007 64.5011 102.146 64.8188 102.146 65.2103C102.146 65.511 102.07 65.7692 101.916 65.9848C101.763 66.1947 101.565 66.3423 101.321 66.4274V66.4529C101.599 66.5437 101.826 66.7082 102.001 66.9465C102.183 67.1848 102.274 67.4685 102.274 67.7976C102.274 68.0926 102.203 68.3508 102.061 68.572C101.919 68.7876 101.726 68.955 101.482 69.0742C101.244 69.1876 100.98 69.2444 100.691 69.2444H98.376V63.8827H100.691ZM100.41 66.0529C100.637 66.0529 100.813 65.9905 100.938 65.8657C101.062 65.7352 101.125 65.5763 101.125 65.3891C101.125 65.1905 101.062 65.0373 100.938 64.9295C100.819 64.8217 100.66 64.7678 100.461 64.7678H99.3802V66.0529H100.41ZM100.521 68.3508C100.736 68.3508 100.909 68.294 101.04 68.1805C101.176 68.0614 101.244 67.894 101.244 67.6784C101.244 67.4571 101.179 67.2784 101.048 67.1423C100.918 67.0061 100.728 66.938 100.478 66.938H99.3802V68.3508H100.521Z" fill="white"/>
<path d="M106.427 63.8827V64.7678H104.01V66.0529H106.078V66.9465H104.01V68.3508H106.478V69.2444H103.005V63.8827H106.427Z" fill="white"/>
<path d="M110.417 69.2444L110.094 68.1891H108.111L107.788 69.2444H106.817L108.545 63.8827H109.711L111.439 69.2444H110.417ZM109.081 64.7763C109.076 64.8274 109.059 64.9352 109.03 65.0997C109.002 65.2642 108.971 65.3976 108.937 65.4997L108.383 67.2954H109.822L109.277 65.4997C109.243 65.3862 109.209 65.2501 109.175 65.0912C109.141 64.9323 109.121 64.8274 109.115 64.7763H109.081Z" fill="white"/>
<path d="M113.847 63.7805C114.443 63.7805 114.919 63.9564 115.277 64.3082C115.64 64.6543 115.821 65.1763 115.821 65.8742H114.791C114.791 65.4713 114.706 65.1649 114.536 64.955C114.366 64.7451 114.136 64.6401 113.847 64.6401C113.478 64.6401 113.203 64.7905 113.021 65.0912C112.84 65.3919 112.749 65.8174 112.749 66.3678V66.7593C112.749 67.3096 112.843 67.7352 113.03 68.0359C113.223 68.3309 113.506 68.4784 113.881 68.4784C114.182 68.4784 114.417 68.3763 114.587 68.172C114.757 67.9621 114.843 67.6557 114.843 67.2529H115.821C115.821 67.9337 115.64 68.4529 115.277 68.8103C114.919 69.1621 114.443 69.338 113.847 69.338C113.16 69.338 112.633 69.1082 112.264 68.6486C111.895 68.1834 111.711 67.4883 111.711 66.5635C111.711 65.633 111.895 64.938 112.264 64.4784C112.633 64.0132 113.16 63.7805 113.847 63.7805Z" fill="white"/>
<path d="M119.234 69.2444V66.9465H117.548V69.2444H116.544V63.8827H117.548V66.0529H119.234V63.8827H120.238V69.2444H119.234Z" fill="white"/>
</g>
</g>
</g>
<g id="Group_109">
<g id="20">
<path d="M172.599 38.7345C173.03 38.7345 173.379 38.8508 173.646 39.0835C173.912 39.3104 174.046 39.6594 174.046 40.1303C174.046 40.431 173.98 40.726 173.85 41.0154C173.725 41.3047 173.572 41.5686 173.39 41.8069C173.214 42.0395 172.996 42.3005 172.735 42.5898L172.429 42.9473C172.321 43.0778 172.233 43.2026 172.165 43.3218H174.071V44.1984H170.99V44.0111C170.99 43.7274 171.044 43.4693 171.152 43.2367C171.243 43.0154 171.359 42.8111 171.501 42.6239C171.648 42.431 171.844 42.1984 172.088 41.926C172.309 41.6764 172.482 41.4693 172.607 41.3047C172.738 41.1402 172.846 40.9586 172.931 40.7601C173.021 40.5558 173.067 40.343 173.067 40.1218C173.067 39.9686 173.027 39.8352 172.948 39.7218C172.868 39.6026 172.741 39.543 172.565 39.543C172.383 39.543 172.247 39.6196 172.156 39.7728C172.071 39.926 172.029 40.1218 172.029 40.3601V40.675H171.058C171.053 40.6579 171.047 40.6239 171.041 40.5728C171.036 40.5161 171.033 40.448 171.033 40.3686C171.033 39.8239 171.18 39.4154 171.475 39.143C171.776 38.8707 172.151 38.7345 172.599 38.7345Z" fill="#1FC4B5"/>
<path d="M176.088 38.7345C176.422 38.7345 176.703 38.8196 176.93 38.9898C177.157 39.1544 177.33 39.4409 177.449 39.8494C177.574 40.2523 177.637 40.8083 177.637 41.5175C177.637 42.2211 177.574 42.7771 177.449 43.1856C177.33 43.5884 177.157 43.875 176.93 44.0452C176.703 44.2097 176.422 44.292 176.088 44.292C175.747 44.292 175.464 44.2097 175.237 44.0452C175.01 43.8806 174.837 43.5941 174.717 43.1856C174.598 42.7771 174.539 42.2211 174.539 41.5175C174.539 40.8083 174.598 40.2494 174.717 39.8409C174.837 39.4324 175.01 39.1459 175.237 38.9813C175.464 38.8168 175.747 38.7345 176.088 38.7345ZM176.088 39.526C175.929 39.526 175.807 39.5856 175.722 39.7047C175.642 39.8239 175.586 40.0054 175.551 40.2494C175.523 40.4934 175.509 40.8253 175.509 41.2452V41.7898C175.509 42.204 175.523 42.5331 175.551 42.7771C175.586 43.0211 175.642 43.2026 175.722 43.3218C175.807 43.4409 175.929 43.5005 176.088 43.5005C176.241 43.5005 176.357 43.4409 176.437 43.3218C176.522 43.1969 176.578 43.0154 176.607 42.7771C176.641 42.5331 176.658 42.204 176.658 41.7898V41.2452C176.658 40.8253 176.641 40.4934 176.607 40.2494C176.578 40.0054 176.522 39.8239 176.437 39.7047C176.357 39.5856 176.241 39.526 176.088 39.526Z" fill="#1FC4B5"/>
</g>
</g>
<g id="Group_110">
<g id="03">
<path d="M15.3209 38.7345C15.6557 38.7345 15.9365 38.8196 16.1635 38.9898C16.3904 39.1544 16.5635 39.4409 16.6826 39.8494C16.8074 40.2523 16.8698 40.8083 16.8698 41.5175C16.8698 42.2211 16.8074 42.7771 16.6826 43.1856C16.5635 43.5884 16.3904 43.875 16.1635 44.0452C15.9365 44.2097 15.6557 44.292 15.3209 44.292C14.9805 44.292 14.6968 44.2097 14.4698 44.0452C14.2429 43.8806 14.0698 43.5941 13.9507 43.1856C13.8315 42.7771 13.772 42.2211 13.772 41.5175C13.772 40.8083 13.8315 40.2494 13.9507 39.8409C14.0698 39.4324 14.2429 39.1459 14.4698 38.9813C14.6968 38.8168 14.9805 38.7345 15.3209 38.7345ZM15.3209 39.526C15.162 39.526 15.0401 39.5856 14.955 39.7047C14.8755 39.8239 14.8188 40.0054 14.7847 40.2494C14.7564 40.4934 14.7422 40.8253 14.7422 41.2452V41.7898C14.7422 42.204 14.7564 42.5331 14.7847 42.7771C14.8188 43.0211 14.8755 43.2026 14.955 43.3218C15.0401 43.4409 15.162 43.5005 15.3209 43.5005C15.4741 43.5005 15.5904 43.4409 15.6698 43.3218C15.755 43.1969 15.8117 43.0154 15.8401 42.7771C15.8741 42.5331 15.8911 42.204 15.8911 41.7898V41.2452C15.8911 40.8253 15.8741 40.4934 15.8401 40.2494C15.8117 40.0054 15.755 39.8239 15.6698 39.7047C15.5904 39.5856 15.4741 39.526 15.3209 39.526Z" fill="#1FC4B5"/>
<path d="M18.8609 38.7345C19.3148 38.7345 19.6751 38.865 19.9417 39.126C20.2084 39.3813 20.3417 39.7416 20.3417 40.2069C20.3417 40.5076 20.2793 40.7515 20.1545 40.9388C20.0297 41.126 19.8566 41.282 19.6353 41.4069V41.4494C19.8793 41.5345 20.0722 41.6877 20.2141 41.909C20.3616 42.1303 20.4353 42.4111 20.4353 42.7515C20.4353 43.2225 20.2907 43.5969 20.0013 43.875C19.7176 44.153 19.346 44.292 18.8864 44.292C18.3814 44.292 17.9899 44.1501 17.7119 43.8664C17.4339 43.5771 17.2949 43.1828 17.2949 42.6835V42.5473H18.2736V42.7005C18.2736 42.9615 18.3247 43.1601 18.4268 43.2962C18.529 43.4324 18.6765 43.5005 18.8694 43.5005C19.0566 43.5005 19.2013 43.4352 19.3034 43.3047C19.4055 43.1742 19.4566 42.9757 19.4566 42.709C19.4566 42.1473 19.2438 41.8664 18.8183 41.8664H18.5545V41.075H18.8268C18.98 41.075 19.1048 41.004 19.2013 40.8622C19.3034 40.7203 19.3545 40.5161 19.3545 40.2494C19.3545 40.0054 19.3119 39.8239 19.2268 39.7047C19.1417 39.5856 19.0226 39.526 18.8694 39.526C18.7105 39.526 18.5857 39.5913 18.4949 39.7218C18.4098 39.8466 18.3673 40.031 18.3673 40.275V40.4281H17.3885V40.2069C17.3885 39.7643 17.5247 39.4097 17.797 39.143C18.0751 38.8707 18.4297 38.7345 18.8609 38.7345Z" fill="#1FC4B5"/>
</g>
</g>
</g>
</g>
</svg>
